# xmcd
#
# Track frame offsets:
#	150
#	13589
#	26683
#	35992
#	46898
#	59908
#	74730
#	89084
#	102434
#	118270
#	126122
#	137104
#	146902
#	156237
#	170618
#	180955
#	191646
#	204257
#	213565
#	224238
#
# Disc length: 3161 seconds
# Revision: 1
# Processed by: cddbd v1.5.2PL0 Copyright (c) Steve Scherf et al.
# Submitted via: dBpowerAMP V12.0
#
DISCID=4d0c5714
DTITLE=Various Artist - Spirit Of Country - disque 03
DYEAR=2001
DGENRE=International 2000-2009
TTITLE0=B.J. Thomas - Raindrops Keep Falling On My Head
TTITLE1=Lynn Anderson - Rose Garden
TTITLE2=Willie Nelson - One Step Beyond
TTITLE3=Johnny Cash - Cry! Cry! Cry!
TTITLE4=Gene Pitney - Town Without Pity
TTITLE5=Juice Newton - Queen Of Hearts
TTITLE6=Red Foley - (Will There Be) Peace In The Valley
TTITLE7=Vaugn Monroe - Riders In The Sky
TTITLE8=Boxcar Willie - Mule Train
TTITLE9=Don Gibson - Blue Blue Day
TTITLE10=Jack Greene - There Goes My Everything
TTITLE11=Mickey Gilley - Fraulein
TTITLE12=Elvis Presley - Blue Moon Of Kentucky
TTITLE13=T Graham Brown - Darlene
TTITLE14=Charlie Walker - Pick Me Up On Your Way
TTITLE15=Janie Fricke - Down To My Last Broken Heart
TTITLE16=Freddy Fender - Wasted Days And Wasted Nights (live)
TTITLE17=Doc Watson - Corn Likker
TTITLE18=Ferlin Husky - Wings Of A Dove
TTITLE19=Kenny Rogers - Ruby Don't Take Your Love To Town
EXTD=
EXTT0=
EXTT1=
EXTT2=
EXTT3=
EXTT4=
EXTT5=
EXTT6=
EXTT7=
EXTT8=
EXTT9=
EXTT10=
EXTT11=
EXTT12=
EXTT13=
EXTT14=
EXTT15=
EXTT16=
EXTT17=
EXTT18=
EXTT19=
PLAYORDER=
